# xmcd
#
# Track frame offsets: 
#        150
#        10464
#        22177
#        33917
#        43684
#        53698
#        64327
#        74715
#        84410
#        94295
#        104715
#        115918
#        126355
#        135268
#        153017
#        166636
#        176362
#        186333
#        199010
#        210770
#        224638
#        234037
#        243295
#        252792
#        264697
#        274803
#        285642
#        295147
#        304601
#
# Disc length: 4188 seconds
#
# Revision: 0
# Processed by: cddbd v1.5.2PL0 Copyright (c) Steve Scherf et al.
# Submitted via: ExactAudioCopy v0.95b3
#
DISCID=a1105a1d
DTITLE=Ricky Nelson   - Ricky Nelson Box Set - Vol 06
DYEAR=1900
DGENRE=
TTITLE0=I rise I fall
TTITLE1=A legend in my time
TTITLE2=Unknown
TTITLE3=Just take a moment
TTITLE4=That's all she wrote
TTITLE5=Unknown
TTITLE6=Hey little miss Tease
TTITLE7=The nearness of you
TTITLE8=My old flame
TTITLE9=Unknown
TTITLE10=I wonder
TTITLE11=Be my love
TTITLE12=The very thought of you
TTITLE13=Dinah
TTITLE14=Unknown
TTITLE15=I don't wanna love you
TTITLE16=Just a little bit sweet
TTITLE17=I love you more than you know
TTITLE18=The loneliest sound
TTITLE19=You'll never fall in love again
TTITLE20=Lonely corner
TTITLE21=Just relax
TTITLE22=There's nothing I can say
TTITLE23=That's why I love you like I do
TTITLE24=A happy guy
TTITLE25=In my dreams
TTITLE26=Don't breathe a word
TTITLE27=I'm talking bout you
TTITLE28=Yesterday's love
EXTD=
EXTT0=
EXTT1=
EXTT2=
EXTT3=
EXTT4=
EXTT5=
EXTT6=
EXTT7=
EXTT8=
EXTT9=
EXTT10=
EXTT11=
EXTT12=
EXTT13=
EXTT14=
EXTT15=
EXTT16=
EXTT17=
EXTT18=
EXTT19=
EXTT20=
EXTT21=
EXTT22=
EXTT23=
EXTT24=
EXTT25=
EXTT26=
EXTT27=
EXTT28=
PLAYORDER=
